PathFileType	3	(X/Y/Z)	D:\minhoCalibration\240510\subject2_KPNP\preferred\preferred02.trc
DataRate	CameraRate	NumFrames	NumMarkers	Units	OrigDataRate	OrigDataStartFrame	OrigNumFrames
200.0	200.0	12	10	mm	200.0	300	197	
Frame#	Time	Left_Ankle_Outer1			Left_Ankle_Inner1			Left_Knee_Outer1			Left_Knee_Inner1			Left_Wrist1			Right_Wrist1			Right_Knee_Inner1			Right_Knee_Outer1			Right_Ankle_Inner1			Right_Ankle_Outer1			
		X1	Y1	Z1	X2	Y2	Z2	X3	Y3	Z3	X4	Y4	Z4	X5	Y5	Z5	X6	Y6	Z6	X7	Y7	Z7	X8	Y8	Z8	X9	Y9	Z9	X10	Y10	Z10	
300	1.49	-427.48956	99.625351	-832.43201	-443.71597	100.64547	-780.07672	-247.39555	520.95758	-798.91125	-323.58017	500.91434	-726.19849	-399.12051	914.93213	-914.51569	-706.4234	959.05634	-1045.4946	-720.6958	454.37207	-1087.2704	-781.80151	495.78738	-1142.3591	-722.22034	91.160301	-1263.5492	-798.67395	118.78731	-1319.3467
301	1.495	-427.82675	97.309082	-832.25116	-444.52679	98.82299	-778.92712	-246.43105	518.30988	-797.69067	-322.68619	498.70447	-724.95483	-396.63458	913.20959	-912.67316	-705.76093	958.9986	-1037.337	-722.68048	453.26047	-1082.6085	-783.45728	495.32587	-1137.9475	-722.21704	92.049828	-1262.0232	-798.81586	119.1618	-1317.7664
302	1.5	-427.68466	95.074097	-833.0332	-445.55212	96.457466	-779.28082	-245.61299	515.93738	-796.25354	-322.04462	496.6088	-723.72784	-393.99509	911.59558	-910.94061	-703.51831	958.10156	-1036.7502	-724.8266	452.23761	-1077.8632	-785.23102	494.93109	-1133.2773	-722.05432	92.495483	-1261.3164	-798.61981	120.21313	-1316.7196
303	1.505	-427.35654	92.980324	-834.59265	-446.06705	94.789452	-780.69818	-245.17819	513.53778	-794.28186	-321.70215	494.55646	-722.20483	-391.3952	910.0246	-909.08771	-701.93799	957.70703	-1032.6079	-727.1582	451.25064	-1072.533	-787.16412	494.44891	-1128.1525	-722.11761	93.49794	-1259.9147	-798.44794	121.54874	-1315.4775
304	1.51	-426.89084	90.970833	-836.16809	-446.69254	92.619621	-783.10809	-244.51337	511.49481	-792.09808	-321.62512	492.7334	-720.54309	-388.8829	908.6308	-907.09369	-700.73022	956.96875	-1025.6766	-729.75122	450.30383	-1066.8984	-789.5423	493.96927	-1122.5095	-722.46344	94.687416	-1258.2994	-798.14856	123.47414	-1314.5004
305	1.515	-426.55038	89.764656	-837.77313	-447.23965	91.58606	-784.81952	-243.39322	509.99713	-789.51874	-321.44836	491.05264	-718.84869	-386.36194	907.30878	-905.01941	-699.42902	956.53082	-1019.8374	-732.74628	449.4292	-1060.6343	-792.30408	493.15356	-1116.3917	-722.09039	96.039055	-1256.5594	-797.74933	124.70411	-1312.7502
306	1.52	-426.12982	88.958519	-838.93152	-447.72275	90.814751	-786.52496	-242.08583	508.79871	-786.43091	-321.36765	489.57312	-716.96753	-383.66125	906.15729	-902.90845	-696.97699	955.83539	-1018.7163	-735.01367	447.98721	-1054.275	-794.72913	493.58853	-1110.049	-722.10034	98.234665	-1254.0111	-797.09833	127.73557	-1311.9108
307	1.525	-425.79651	88.808365	-839.53369	-447.84482	90.472107	-787.5481	-240.44209	507.9986	-783.0921	-320.85129	488.38928	-715.17578	-380.91327	905.39014	-900.89716	-695.75928	955.9389	-1013.5343	-738.1629	447.46243	-1047.9652	-797.25623	494.06824	-1104.1329	-721.96936	100.04577	-1252.4479	-796.56989	130.36795	-1309.8406
308	1.53	-425.3161	88.963814	-839.604	-447.89615	90.209793	-787.98248	-238.55746	507.64853	-779.64966	-320.15869	487.59198	-713.22784	-377.95309	904.84473	-898.91071	-694.40405	955.51556	-1008.2221	-741.52057	446.88235	-1040.7079	-800.19476	494.33267	-1096.9916	-721.32471	103.1937	-1249.6248	-795.85358	133.33727	-1307.7213
309	1.535	-424.72937	89.12458	-839.35706	-447.41241	90.344002	-787.73859	-236.75682	507.353	-776.15485	-319.12378	487.12567	-711.21722	-374.89743	904.59546	-896.88885	-692.49414	956.1524	-1001.4141	-744.65314	445.87564	-1033.5093	-803.87646	494.80804	-1088.8353	-721.68109	105.7325	-1247.1543	-795.25421	136.80925	-1304.2858
310	1.54	-424.0127	89.330009	-839.11395	-447.03506	90.211357	-787.56366	-234.83412	507.37949	-773.03778	-317.86746	486.92776	-709.32141	-371.82486	904.67365	-894.64081	-690.67975	955.83368	-994.9162	-749.08575	447.28055	-1024.2361	-807.55664	496.22751	-1080.5219	-721.8158	109.13274	-1243.8369	-794.552	140.61331	-1301.1949
311	1.545	-423.36038	89.291344	-838.66864	-446.65259	90.179985	-787.47534	-233.28052	507.36636	-770.19574	-316.42197	487.08081	-707.49103	-368.33408	905.09106	-892.39386	-688.74567	956.14233	-989.42041	-753.50604	448.06357	-1015.1796	-811.91547	498.07675	-1071.3213	-721.49927	113.23782	-1239.9332	-793.87659	145.51141	-1297.4181
